<?xml version="1.0" encoding="utf-8"?>
<!-- Generator: Adobe Illustrator 16.0.0, SVG Export Plug-In . SVG Version: 6.00 Build 0)  -->
<!DOCTYPE svg PUBLIC "-//W3C//DTD SVG 1.1//EN" "http://www.w3.org/Graphics/SVG/1.1/DTD/svg11.dtd">
<svg version="1.1" id="Layer_1" xmlns="http://www.w3.org/2000/svg" xmlns:xlink="http://www.w3.org/1999/xlink" x="0px" y="0px"
	 width="200px" height="200px" viewBox="0 0 200 200" enable-background="new 0 0 200 200" xml:space="preserve">
<g>
	<g>
		<path fill-rule="evenodd" clip-rule="evenodd" stroke="#000000" stroke-width="2" stroke-miterlimit="10" d="M-1020.049,119.502
			c2.312-4.626,5.127-15.431,4.376-26.8c-0.395-5.987-2.654-12.435-4.595-17.563c-3.097-8.185-14.859-13.899-14.859-13.899h-162.86
			c0,0,0.483,7.046,0.601,9.41c0.854,17.223,5.677,27.217,7.524,31.613c7.345,17.48,20.386,36.354,36.084,46.373
			c3.468,2.214,11.971,7.225,17.206,9.354c18.693,7.607,41.527,9.422,56.1,7.542
			C-1037.398,159.979-1026.446,132.294-1020.049,119.502z"/>
		<path fill-rule="evenodd" clip-rule="evenodd" stroke="#000000" stroke-width="2" stroke-miterlimit="10" d="M-1020.049,2.979
			c2.312,4.626,5.127,15.43,4.376,26.8c-0.395,5.987-2.654,12.435-4.595,17.563c-3.097,8.184-14.859,13.898-14.859,13.898h-162.86
			c0,0,0.483-7.046,0.601-9.41c0.854-17.223,5.677-27.216,7.524-31.613c7.345-17.479,20.386-36.354,36.084-46.373
			c3.468-2.213,11.971-7.225,17.206-9.354c18.693-7.607,41.527-9.421,56.1-7.542C-1037.398-37.497-1026.446-9.813-1020.049,2.979z"
			/>
	</g>
	
		<circle fill-rule="evenodd" clip-rule="evenodd" stroke="#000000" stroke-width="2" stroke-miterlimit="10" cx="-1239.37" cy="61.241" r="39.929"/>
</g>
<g>
	<path fill-rule="evenodd" clip-rule="evenodd" stroke="#000000" stroke-width="2" stroke-miterlimit="10" d="M-829.42,78.695
		c0.854-1.707,1.894-5.697,1.614-9.895c-0.145-2.212-0.979-4.592-1.694-6.485c-1.144-3.022-5.487-5.133-5.487-5.133h-60.134
		c0,0,0.178,2.603,0.223,3.476c0.314,6.358,2.096,10.049,2.777,11.672c2.711,6.455,7.527,13.424,13.324,17.123
		c1.28,0.816,4.42,2.668,6.354,3.454c6.9,2.809,15.332,3.479,20.712,2.784C-835.827,93.641-831.781,83.418-829.42,78.695z"/>
	<path fill-rule="evenodd" clip-rule="evenodd" stroke="#000000" stroke-width="2" stroke-miterlimit="10" d="M-829.42,35.671
		c0.854,1.708,1.894,5.697,1.614,9.896c-0.145,2.211-0.979,4.592-1.694,6.484c-1.144,3.022-5.487,5.132-5.487,5.132h-60.134
		c0,0,0.178-2.601,0.223-3.474c0.314-6.359,2.096-10.049,2.777-11.674c2.711-6.454,7.527-13.422,13.324-17.122
		c1.28-0.817,4.42-2.668,6.354-3.454c6.9-2.809,15.332-3.479,20.712-2.785C-835.827,20.725-831.781,30.947-829.42,35.671z"/>
	
		<circle fill-rule="evenodd" clip-rule="evenodd" stroke="#000000" stroke-width="2" stroke-miterlimit="10" cx="-910.401" cy="57.183" r="14.744"/>
</g>
<path fill-rule="evenodd" clip-rule="evenodd" stroke="#66883A" stroke-width="6" stroke-miterlimit="10" d="M96.188,68.537
	c-15.113-2.981-22.73-15.837-21.062-28.37c1.674-12.559,12.555-21.797,25.281-21.612c12.587,0.181,23.167,9.702,24.504,22.303
	c1.346,12.683-6.664,24.858-20.707,27.568c3.372,0.459,7.058,0.592,10.543,1.499c15.896,4.135,29.504,11.942,39.147,25.626
	c6.274,8.903,9.422,19.003,10.549,29.758c0.918,8.746,0.565,17.412-2.139,25.869c-3.567,11.156-10.724,19.193-20.992,24.738
	c-6.563,3.541-13.372,5.791-20.86,5.396c-5.502-0.291-10.873-1.459-15.317-4.904c-2.046-1.588-3.531-3.896-5.281-5.893
	c-0.898,1.193-1.914,2.623-3.015,3.986c-1.603,1.982-3.646,3.316-6.027,4.281c-8.428,3.416-16.989,3.576-25.355,0.318
	c-16.597-6.461-27.319-18.082-29.651-36.219c-2.368-18.41,1.074-35.558,12.575-50.519c6.221-8.09,14.617-13.499,23.717-17.895
	c7.396-3.572,15.158-5.601,23.378-5.837C95.663,68.627,95.851,68.583,96.188,68.537z"/>
</svg>
